<?xml version="1.0" encoding="UTF-8"?>
<!-- Creator: CorelDRAW 2021 (64 Bit) -->
<svg width="50mm" height="60mm" clip-rule="evenodd" fill-rule="evenodd" image-rendering="optimizeQuality" shape-rendering="geometricPrecision" text-rendering="geometricPrecision" version="1.1" viewBox="0 0 5e3 6e3" xml:space="preserve" xmlns="http://www.w3.org/2000/svg">
 <defs>
  <style type="text/css">
   <![CDATA[
    .fil5 {fill:#900A6A}
    .fil4 {fill:#C10A69}
    .fil3 {fill:#FE1063}
    .fil2 {fill:#FF2D5A}
    .fil1 {fill:#FF624C}
    .fil0 {fill:white}
   ]]>
  </style>
 </defs>
 
  
  <g transform="translate(-34104 -8123.9)">
   
   
   
   
   
   
   
   
   <polygon class="fil1" points="34578 8756.3 38671 8756.3 38671 8333 34578 8333"/>
   
   
   <polygon class="fil2" points="36977 10270 37436 10270 37436 9955.8 38177 9955.8 38177 10270 38671 10270 38671 9497.2 36977 9497.2"/>
   <polygon class="fil3" points="34543 12216 35037 12216 35037 10077 34543 10077"/>
   <polygon class="fil3" points="35778 12216 36236 12216 36236 10077 35778 10077"/>
   <polygon class="fil3" points="38177 12216 38671 12216 38671 10270 38177 10270"/>
   <polygon class="fil3" points="36977 12216 37436 12216 37436 10270 36977 10270"/>
   <polygon class="fil2" points="34543 10077 35037 10077 35037 9955.8 35778 9955.8 35778 10077 36236 10077 36236 9497.2 34543 9497.2"/>
   <polygon class="fil4" points="35778 13152 37436 13152 37436 12216 36977 12216 36977 13131 36236 13131 36236 12216 35778 12216"/>
   <polygon class="fil5" points="37436 13152 35778 13152 35778 13589 37436 13589"/>
   
   
   
   <polygon class="fil4" points="35037 12216 34543 12216 34543 13166 35037 13166"/>
   <polygon class="fil4" points="38671 12216 38177 12216 38177 13166 38671 13166"/>
   
   
   
   
  </g>
 
</svg>
